<svg width="536" height="192" viewBox="0 0 536 192" fill="none" xmlns="http://www.w3.org/2000/svg">
<path fill-rule="evenodd" clip-rule="evenodd" d="M84.7169 29.887C100.373 12.4266 118.311 3.68927 145.039 0.505373C168.679 -2.31032 195.933 6.80955 214.12 23.6231L218.687 27.8453L211.952 34.3734L205.218 40.9016L200.411 36.468C183.327 20.7115 157.05 15.3176 131.701 22.3635C115.141 26.9673 99.7975 39.1636 91.1814 54.5733C78.895 76.5479 78.1182 109.813 89.3567 132.745C98.5124 151.428 113.371 163.692 133.706 169.352C143.167 171.986 162.06 172.239 171.61 169.858C183.293 166.947 196.211 160.084 203.682 152.821L206.527 150.053L213.04 156.702L219.554 163.35L217.168 165.921C213.132 170.272 203.795 176.944 196.476 180.709C175.281 191.608 148.827 193.787 124.749 186.617C95.2815 177.842 73.0861 154.508 64.7612 123.555C61.6689 112.056 60.7997 87.9782 63.0359 75.7569C66.2964 57.9319 73.7966 42.0653 84.7169 29.887ZM138.501 136.219V93.9903V51.7612L168.796 52.0882C197.69 52.3991 199.374 52.5101 205.194 54.4918C225.273 61.3263 234.696 72.7602 235.904 91.7516C237.179 111.812 226.644 126.554 206.066 133.508C200.254 135.471 198.5 135.585 169.232 135.895L138.501 136.219ZM440.147 68.9071V61.2923V53.6775H451.917H463.686V61.2681V68.8578L476.109 69.1069L488.533 69.355L488.784 77.6418L489.034 85.9285H476.36H463.686V99.8V113.672L466.111 116.462C469.123 119.925 474.308 120.73 480.645 118.72C483.021 117.966 485.112 117.501 485.292 117.687C485.473 117.872 486.392 121.12 487.336 124.902C488.581 129.896 488.792 132.099 488.111 132.944C487.594 133.584 484.732 135.058 481.749 136.222C477.246 137.978 474.703 138.336 466.737 138.336C458.255 138.336 456.66 138.08 452.925 136.12C450.604 134.902 447.514 132.512 446.06 130.81C441.117 125.026 440.672 122.915 440.315 103.622L439.989 85.9285H434.402H428.814V77.4178V68.9071H434.48H440.147ZM254.076 79.7775C260.481 72.4565 268.532 68.5783 280.265 67.1629C300.674 64.6993 317.686 71.8428 324.548 85.7574C327.051 90.8342 328.921 101.083 328.133 105.413L327.604 108.325H298.003C277.915 108.325 268.4 108.627 268.4 109.266C268.4 110.896 270.769 114.967 272.919 117.029C279.851 123.68 297.572 124.035 309.16 117.754L314.612 114.799L320.182 121.168L325.752 127.538L323.012 129.647C314.987 135.826 304.417 138.838 290.514 138.907C274.817 138.983 263.801 135.556 256 128.166C243.478 116.305 242.549 92.9511 254.076 79.7775ZM367.133 76.358C371.053 72.4717 374.717 70.2572 380.428 68.3185C382.588 67.5848 386.9 67.2372 391.762 67.4039C404.718 67.8491 412.287 72.6626 417.189 83.576L419.653 89.064L419.949 112.58L420.245 136.097H408.401H396.557L396.537 115.716C396.516 92.3034 395.862 89.2862 390.215 86.5323C382.196 82.6219 371.759 85.9016 365.382 94.3362C363.494 96.8329 363.428 97.5836 363.428 116.509V136.097H352.094H340.761V102.502V68.9071H352.094H363.428V74.4686V80.0301L367.133 76.358ZM211.714 94.1131C211.68 85.1446 207.328 78.5323 198.735 74.3916C194.127 72.1716 192.988 72.0265 177.935 71.747L162.009 71.4523L162.243 94.1435L162.475 116.836L175.553 116.754C182.745 116.708 190.882 116.177 193.634 115.573C204.492 113.186 211.754 104.569 211.714 94.1131ZM306.166 93.1948C305.472 90.4642 300.517 86.1139 296.404 84.6232C287.666 81.4546 275.224 84.2729 271.266 90.3164C270.169 91.9908 269.272 93.7037 269.272 94.1238C269.272 94.544 277.67 94.8871 287.934 94.8871C305.801 94.8871 306.579 94.8145 306.166 93.1948ZM502.441 129.727C498.238 119.467 500.75 111.033 508.621 108.978C509.56 108.734 510.524 108.488 510.764 108.434C511.004 108.38 512.73 108.771 514.599 109.305C517.113 110.022 518.972 109.995 521.736 109.199C524.985 108.265 525.904 108.342 528.743 109.792C536.045 113.521 537.637 119.945 533.616 129.452C532.174 132.86 530.478 138.068 529.849 141.024C528.639 146.697 525.738 150.779 523.532 149.909C522.11 149.348 521.601 147.696 520.728 140.815C520.105 135.911 518.36 133.308 516.782 134.929C516.296 135.428 515.516 138.614 515.049 142.009C513.986 149.716 512.812 151.191 509.725 148.696C508.161 147.432 507.067 145.125 506.04 140.924C505.237 137.638 503.618 132.599 502.441 129.727ZM230.041 190.744V174.619V158.493H232.656H235.272V174.619V190.744H232.656H230.041ZM241.874 163.359C240.842 162.297 240.727 161.528 241.407 160.223C242.661 157.813 246.321 157.954 247.089 160.441C247.509 161.802 247.215 162.746 246.109 163.576C244.083 165.098 243.541 165.071 241.874 163.359ZM281.976 164.217C280.587 163.67 280.087 160.221 281.227 159.05C282.585 157.654 286.272 158.935 286.544 160.896C286.851 163.118 284.157 165.077 281.976 164.217ZM257.939 169.272C257.939 169.808 258.947 169.634 260.336 168.86C265.219 166.139 271.423 167.858 273.596 172.536C274.242 173.928 274.955 178.595 275.18 182.906L275.588 190.744H272.866H270.144V183.537C270.144 177.005 269.936 176.115 267.921 174.045C266.203 172.28 265.162 171.89 263.344 172.332C259.119 173.358 257.939 175.835 257.939 183.677V190.744H255.323H252.708V179.546V168.348H255.323C256.762 168.348 257.939 168.763 257.939 169.272ZM290.756 180.104C290.631 175.17 292.632 171.18 296.203 169.239C300.046 167.153 304.25 166.999 307.675 168.819C310.503 170.321 310.832 171.213 309.105 172.686C308.281 173.389 307.061 173.375 304.724 172.638C301.891 171.745 301.186 171.844 299.109 173.433C294.169 177.212 294.604 183.406 299.995 186.071C301.921 187.021 302.841 186.996 305.343 185.922C308.114 184.732 308.489 184.764 309.838 186.295C311.235 187.882 311.163 188.056 308.381 189.799C300.766 194.57 290.986 189.191 290.756 180.104ZM241.374 190.744V179.546V168.348H243.99H246.605V179.546V190.744H243.99H241.374ZM280.606 190.744V179.546V168.348H283.221H285.837V179.546V190.744H283.221H280.606ZM0 45.0141V126.124H54.8129V111.986H17.1488V92.6189H51.8425V78.48H17.1488V59.153H54.6544V45.0141H0Z" fill="white"/>
</svg>
