<svg width="20" height="20" viewBox="0 0 20 20" fill="none" xmlns="http://www.w3.org/2000/svg">
<path d="M14.5861 0H5.41382C2.42859 0 0 2.42859 0 5.41382V14.5863C0 17.5714 2.42859 20 5.41382 20H14.5863C17.5714 20 20 17.5714 20 14.5863V5.41382C20 2.42859 17.5714 0 14.5861 0ZM18.8275 14.5863C18.8275 16.9248 16.9248 18.8275 14.5861 18.8275H5.41382C3.07511 18.8275 1.1725 16.9248 1.1725 14.5863V5.41382C1.1725 3.07511 3.07511 1.1725 5.41382 1.1725H14.5863C16.9248 1.1725 18.8275 3.07511 18.8275 5.41382V14.5863Z" fill="white"/>
<path d="M10 4.53138C6.9846 4.53138 4.53143 6.98451 4.53143 9.99998C4.53143 13.0154 6.98456 15.4686 10 15.4686C13.0155 15.4686 15.4686 13.0154 15.4686 9.99998C15.4686 6.98451 13.0155 4.53138 10 4.53138ZM10 14.2961C7.63128 14.2961 5.70393 12.3689 5.70393 9.99998C5.70393 7.63123 7.63128 5.70388 10 5.70388C12.369 5.70388 14.2961 7.63123 14.2961 9.99998C14.2961 12.3689 12.369 14.2961 10 14.2961ZM15.5994 2.58923C14.7083 2.58923 13.9835 3.31419 13.9835 4.20513C13.9835 5.09626 14.7083 5.82119 15.5994 5.82119C16.4905 5.82119 17.2154 5.09626 17.2154 4.20517C17.2154 3.31408 16.4905 2.58923 15.5994 2.58923ZM15.5994 4.64857C15.3549 4.64857 15.156 4.44958 15.156 4.20513C15.156 3.96056 15.3549 3.76173 15.5994 3.76173C15.844 3.76173 16.043 3.96056 16.043 4.20513C16.043 4.44958 15.844 4.64857 15.5994 4.64857Z" fill="white"/>
</svg>
