<svg width="21" height="25" viewBox="0 0 21 25" fill="none" xmlns="http://www.w3.org/2000/svg">
<path fill-rule="evenodd" clip-rule="evenodd" d="M20.3367 21.507C20.3367 23.2204 15.9327 24.6094 10.5 24.6094C5.06726 24.6094 0.663208 23.2204 0.663208 21.507C0.663208 20.161 3.38127 19.0154 7.18054 18.5858C7.63582 19.198 8.0801 19.7767 8.49397 20.3065C7.04836 20.512 6.0575 20.9325 6.0575 21.418C6.0575 22.1058 8.04646 22.6633 10.5 22.6633C12.9535 22.6633 14.9425 22.1058 14.9425 21.418C14.9425 20.933 13.9533 20.5127 12.5098 20.3071C12.9261 19.7765 13.3722 19.1981 13.8288 18.5869C17.6232 19.0172 20.3367 20.1621 20.3367 21.507ZM10.5 0.390625C6.20251 0.390625 2.71873 3.87441 2.71873 8.17188C2.71873 11.7431 7.90588 18.3386 10.3096 21.3392C10.3574 21.3989 10.4233 21.4305 10.4999 21.4305C10.5764 21.4307 10.6423 21.399 10.6902 21.3395C12.9944 18.4681 18.2812 11.8412 18.2812 8.17188C18.2812 3.87441 14.7974 0.390625 10.5 0.390625ZM10.5 4.08516C12.7517 4.08516 14.5772 5.91064 14.5772 8.1624C14.5772 10.4142 12.7518 12.2396 10.5 12.2396C8.24817 12.2396 6.42273 10.4142 6.42273 8.1624C6.42273 5.91064 8.24817 4.08516 10.5 4.08516Z" fill="white"/>
</svg>
