<svg width="23" height="20" viewBox="0 0 23 20" fill="none" xmlns="http://www.w3.org/2000/svg">
<path d="M21.9751 15.4963C21.9128 15.3259 21.5165 15.0748 20.7865 14.7436C20.5887 14.6392 20.3069 14.4974 19.9422 14.3174C19.5773 14.1375 19.246 13.9717 18.949 13.8201C18.6514 13.6686 18.3726 13.5219 18.1121 13.38C18.0705 13.3516 17.9401 13.2689 17.7212 13.1313C17.502 12.9941 17.3171 12.8922 17.1656 12.8258C17.0145 12.7598 16.8658 12.7265 16.7198 12.7265C16.5113 12.7265 16.2509 12.8616 15.9381 13.1313C15.6254 13.4013 15.3386 13.6947 15.078 14.0122C14.8174 14.3295 14.541 14.6229 14.2494 14.8928C13.9572 15.1628 13.7172 15.2976 13.5298 15.2976C13.4356 15.2976 13.3183 15.2738 13.1777 15.2268C13.0371 15.1795 12.9301 15.1389 12.8567 15.1063C12.784 15.0729 12.6591 15.0068 12.4817 14.9071C12.304 14.8076 12.2052 14.7531 12.1844 14.7436C10.7559 14.0238 9.53071 13.1999 8.5087 12.2722C7.48702 11.3439 6.57968 10.2314 5.78722 8.934C5.77681 8.91505 5.71671 8.82505 5.60731 8.66415C5.49774 8.50311 5.42471 8.38962 5.38823 8.32315C5.35174 8.25694 5.30742 8.15982 5.25537 8.03201C5.20333 7.9042 5.1772 7.79773 5.1772 7.71241C5.1772 7.54206 5.32583 7.32415 5.62303 7.05897C5.92019 6.79395 6.24352 6.5429 6.59272 6.30633C6.94219 6.06977 7.2652 5.80927 7.56246 5.52529C7.85961 5.24116 8.00819 5.00454 8.00819 4.81519C8.00819 4.6827 7.9717 4.54762 7.89878 4.41036C7.82581 4.2728 7.71372 4.10494 7.56246 3.90598C7.41115 3.70712 7.31993 3.58886 7.28859 3.5508C7.13235 3.31424 6.9709 3.06095 6.80386 2.79105C6.63682 2.5212 6.4545 2.2204 6.25629 1.88901C6.05824 1.55777 5.90194 1.30199 5.78711 1.12209C5.42236 0.459354 5.14608 0.0993535 4.95833 0.0427364C4.8853 0.0143284 4.77574 0 4.6299 0C4.3482 0 3.9807 0.0472638 3.52714 0.14209C3.07341 0.236767 2.71638 0.336071 2.45566 0.440399C1.93428 0.639156 1.38167 1.21677 0.797663 2.17304C0.265869 3.06299 0 3.94384 0 4.81494C0 5.07041 0.0182433 5.31897 0.0547298 5.56066C0.0912163 5.8021 0.15641 6.07439 0.250365 6.37748C0.344157 6.68046 0.419814 6.90554 0.477009 7.05211C0.534259 7.19877 0.641144 7.46151 0.797609 7.84042C0.953854 8.21922 1.04781 8.45112 1.07909 8.53634C1.44401 9.4644 1.87676 10.2929 2.37721 11.0221C3.20062 12.2342 4.32431 13.4867 5.74761 14.7794C7.17097 16.0719 8.55001 17.0923 9.88478 17.8404C10.6876 18.2948 11.6003 18.6878 12.6221 19.0194C12.716 19.0477 12.9713 19.1328 13.3883 19.2752C13.8054 19.4172 14.0949 19.5142 14.2564 19.5663C14.4179 19.6185 14.6658 19.6872 14.9992 19.7725C15.3333 19.8579 15.6328 19.9171 15.8987 19.9504C16.1647 19.9831 16.4385 20 16.7199 20C17.679 20 18.6491 19.7584 19.6292 19.2755C20.6821 18.7454 21.318 18.2434 21.537 17.7696C21.6521 17.5331 21.7612 17.2087 21.8655 16.7967C21.97 16.3849 22.022 16.0512 22.022 15.7954C22.0223 15.6624 22.0066 15.5632 21.9751 15.4963Z" fill="white"/>
</svg>
